<?xml version="1.0" encoding="utf-8"?>
<!-- Generator: Adobe Illustrator 27.8.0, SVG Export Plug-In . SVG Version: 6.00 Build 0)  -->
<svg version="1.1" xmlns="http://www.w3.org/2000/svg" xmlns:xlink="http://www.w3.org/1999/xlink" x="0px" y="0px"
	 viewBox="0 0 400 155" style="enable-background:new 0 0 400 155;" xml:space="preserve">
<style type="text/css">
	.st0{fill:#FF1D25;}
	.st1{fill:#80A3B5;}
	.st2{fill:#FFF234;}
	.st3{fill:#81A7B6;}
</style>
<g id="Ebene_2">
</g>
<g id="Ebene_3">
</g>
<g id="Ebene_1">
	<g>
		<g>
			<path d="M6.2,151.9v-12.6l4-0.5c3.9-0.5,4.7-2.3,5.7-5.2l27.2-79l-8.7-1V40.3h36.6l34.7,97.6l8.6,0.7v13.3H74.3v-12.6l5.5-0.7
				c3.2-0.3,4.2-1.8,3-5.2l-4.7-13.3H39.9l-6,18l8.6,0.5v13.3H6.2z M43.3,106.1h31.5L59.4,58.6h-0.5L43.3,106.1z"/>
			<path d="M150.6,130.4h0.2l23.7-76.3l-8.6-0.5V40.3h35.6v12.8l-3.7,0.3c-3,0.2-4.4,1.5-5.5,5.4l-30.5,93.1h-23.3l-32.7-97.6
				l-8.6-0.7V40.3h40.1v12.8l-4.9,0.5c-4,0.5-5,2.2-3.7,6.5L150.6,130.4z"/>
			<path class="st1" d="M266.8,87.8c0,24-20.3,29.9-48.8,28.9c0.8,11.2,6.4,21,21,21c9.7,0,16.9-4,21.1-6.9l5.9,13.9
				c-2.7,2-13.8,8.6-29.2,8.6c-28.4,0-38.9-18.5-38.9-42.3c0-26,14.6-46.8,41.4-46.8C256.2,64.1,266.8,72,266.8,87.8z M238.4,78.9
				c-13.4,0-19.3,12.6-20.5,23.5c2.3,0.2,4.5,0.2,6.7,0.2c14.6,0,24.2-3.7,24.2-13.8C248.8,81.8,244.6,78.9,238.4,78.9z"/>
			<path class="st1" d="M359.7,138.6l8.9,0.7v12.6h-36.7v-12.1l4.7-0.7c2.7-0.3,3.4-1.3,3.4-5V81.4h-30.7v57.2l11.1,0.7v12.6h-40.1
				v-12.1l5-0.5c3.2-0.5,4-1.8,4-5.7V81.4H278V67.3h11.2v-6.9c0-14.3,4.9-29.4,31.9-29.4c12.9,0,25.3,4.2,31.7,7l-4.4,13.1
				c-6.9-2.7-16.1-5.5-24.3-5.5c-9.9,0-14.9,3.5-14.9,14.8v6.9h50.5V138.6z"/>
		</g>
		<circle class="st0" cx="378.1" cy="22.3" r="20.1"/>
	</g>
</g>
<g id="Ebene_4">
</g>
</svg>
