<?xml version="1.0" encoding="UTF-8" standalone="no"?>
<!-- Created with Inkscape (http://www.inkscape.org/) -->

<svg
   width="300"
   height="105"
   viewBox="0 0 300 105"
   version="1.1"
   id="svg1"
   inkscape:export-filename="avefi_claim_eng.svg"
   inkscape:export-xdpi="96"
   inkscape:export-ydpi="96"
   xml:space="preserve"
   xmlns:inkscape="http://www.inkscape.org/namespaces/inkscape"
   xmlns:sodipodi="http://sodipodi.sourceforge.net/DTD/sodipodi-0.dtd"
   xmlns="http://www.w3.org/2000/svg"
   xmlns:svg="http://www.w3.org/2000/svg"><sodipodi:namedview
     id="namedview1"
     pagecolor="#ffffff"
     bordercolor="#000000"
     borderopacity="0.25"
     inkscape:showpageshadow="2"
     inkscape:pageopacity="0.0"
     inkscape:pagecheckerboard="0"
     inkscape:deskcolor="#d1d1d1"
     inkscape:document-units="px"
     showgrid="true"><inkscape:grid
       id="grid2"
       units="px"
       originx="0"
       originy="0"
       spacingx="1"
       spacingy="1"
       empcolor="#0099e5"
       empopacity="0.30196078"
       color="#0099e5"
       opacity="0.14901961"
       empspacing="5"
       dotted="false"
       gridanglex="30"
       gridanglez="30"
       visible="true" /><inkscape:page
       x="0"
       y="0"
       width="300"
       height="105"
       id="page3"
       margin="0"
       bleed="0"
       inkscape:export-filename="avefi_claim_eng_icon.svg"
       inkscape:export-xdpi="96"
       inkscape:export-ydpi="96" /></sodipodi:namedview><defs
     id="defs1"><rect
       x="14.647835"
       y="17.786655"
       width="221.95705"
       height="71.52858"
       id="rect1" /></defs><g
     inkscape:label="Layer 1"
     inkscape:groupmode="layer"
     id="layer1"><text
       xml:space="preserve"
       id="text1"
       style="font-size:26.6667px;line-height:1.2;letter-spacing:1.1px;word-spacing:0px;white-space:pre;shape-inside:url(#rect1);fill:#000000"
       transform="matrix(0.99011015,0,0,0.99011015,-5.5692376,5.033607)"><tspan
         x="14.648438"
         y="41.449282"
         id="tspan3"><tspan
           dx="0 0 0 0 0 0 0 -1.1 1.1000007"
           style="font-family:Roboto;-inkscape-font-specification:Roboto"
           id="tspan2">Filme finden.
</tspan></tspan><tspan
         x="14.648438"
         y="74.444799"
         id="tspan8"><tspan
           style="font-weight:300;font-family:Roboto;-inkscape-font-specification:'Roboto Light'"
           id="tspan5">Daten verbinden</tspan><tspan
           style="font-weight:300;font-family:Roboto;-inkscape-font-specification:'Roboto Light'"
           id="tspan7">.</tspan></tspan></text><g
       id="g5"
       transform="matrix(0.89671055,0,0,0.89671055,17.828103,16.1045)"><path
         id="path1-3"
         style="fill:#000000;stroke-width:0.0899267"
         d="m 270.2683,19.484825 c -0.10099,-0.0011 -10.85691,0.01153 -10.85691,0.01153 l -10.76731,0.0022 -10.76732,0.0022 -0.2696,0.247297 -0.26977,0.247297 -0.0114,15.283149 -0.0114,15.283326 0.19601,0.158775 c 0.10785,0.08733 0.32491,0.181766 0.48213,0.209887 0.15721,0.0281 6.22146,0.03963 13.47603,0.02547 l 13.19007,-0.02581 6.03471,0.05106 0.004,-2.074432 V 34.424656 c 0,0 -0.089,-11.355976 -6.7e-4,-14.40373 -0.004,-0.261707 -0.0535,-0.268523 -0.10569,-0.382434 -0.052,-0.113912 -0.22124,-0.152843 -0.32234,-0.154133 z m -24.28374,2.082013 8.04758,0.02388 8.04774,0.02391 0.21954,0.255377 0.21956,0.255204 -0.025,5.692956 c -0.024,5.452968 -0.0321,5.701033 -0.19637,5.882301 l -0.17143,0.189161 h -8.16279 -8.16296 l -0.18632,-0.236941 c -0.18409,-0.234038 -0.18637,-0.306793 -0.18637,-5.927254 v -5.690153 l 0.27838,-0.234302 z m 20.44781,0.551854 c 0.71052,0.01917 1.41047,0.07759 1.50839,0.158949 0.12748,0.105969 0.14859,0.341781 0.14859,1.66804 0,1.081543 -0.0323,1.577199 -0.10785,1.652756 -0.0745,0.07456 -0.53459,0.107842 -1.488,0.107842 -1.34524,0 -1.38542,-0.0056 -1.60061,-0.220779 -0.21652,-0.216529 -0.22076,-0.24899 -0.22076,-1.705449 0,-1.4159 0.009,-1.489347 0.18864,-1.585658 0.13999,-0.07493 0.86109,-0.0949 1.57162,-0.0757 z m -24.90286,0.260299 c 1.12321,0 1.39267,0.02529 1.50873,0.141389 0.11722,0.117195 0.14141,0.397873 0.14141,1.645552 0,1.050139 -0.0324,1.537023 -0.10785,1.612353 -0.1364,0.13639 -2.92001,0.145843 -3.15202,0.01066 -0.14004,-0.08159 -0.15736,-0.258807 -0.15736,-1.61078 0,-1.921004 -0.11975,-1.799235 1.76709,-1.799235 z m 24.81978,6.113081 c 0.71252,-0.0032 1.43956,0.02727 1.56616,0.09503 0.16204,0.08672 0.1739,0.203397 0.1739,1.705441 0,1.502044 -0.0113,1.618726 -0.1739,1.705448 -0.0977,0.0523 -0.76492,0.09308 -1.52241,0.09308 -1.10591,0 -1.3737,-0.02548 -1.4896,-0.141387 -0.1176,-0.117524 -0.1414,-0.401962 -0.1414,-1.690519 0,-1.085108 0.0322,-1.581739 0.10785,-1.657321 0.0686,-0.06872 0.76687,-0.106297 1.4794,-0.109769 z m -24.78622,0.181785 c 0.96961,0 1.43403,0.03317 1.50873,0.107843 0.0755,0.07556 0.10785,0.571212 0.10785,1.652756 0,1.326985 -0.0208,1.562012 -0.1486,1.668033 -0.1081,0.08968 -0.53413,0.132154 -1.55825,0.155091 -1.22487,0.02745 -1.42935,0.01179 -1.56002,-0.118906 -0.1287,-0.128693 -0.15034,-0.369412 -0.15034,-1.667683 0,-1.92164 -0.12458,-1.79713 1.80063,-1.79713 z m 24.8136,6.113789 c 0.76966,0.01991 1.5778,0.105953 1.69738,0.225868 0.0967,0.09696 0.009,3.134893 -0.094,3.260018 -0.12832,0.155746 -2.95488,0.159897 -3.11021,0.0045 -0.076,-0.07586 -0.10784,-0.584082 -0.10784,-1.710892 v -1.6029 l 0.23062,-0.08781 c 0.12002,-0.04561 0.35932,-0.07317 0.65407,-0.08554 0.22108,-0.0094 0.47341,-0.0099 0.72995,-0.0032 z m -24.93725,0.268727 c 0.75732,-0.0032 1.52916,0.02732 1.65625,0.09537 0.16067,0.086 0.1739,0.201155 0.1739,1.508728 0,1.135733 -0.0275,1.455178 -0.13998,1.615521 -0.13529,0.193138 -0.19122,0.199873 -1.66047,0.199873 -1.41124,0 -1.5272,-0.01241 -1.61363,-0.173879 -0.13577,-0.253713 -0.12291,-2.997855 0.015,-3.135489 0.0688,-0.06893 0.81182,-0.106652 1.56915,-0.110123 z m 4.55411,0.980936 8.03297,0.02773 8.03282,0.02778 0.2048,0.204791 0.20479,0.204798 0.0242,5.785518 c 0.0237,5.603745 0.0189,5.792232 -0.14945,6.000145 l -0.17373,0.214633 -7.98906,0.01967 c -8.53484,0.02109 -8.42211,0.02641 -8.65633,-0.411167 -0.0665,-0.124202 -0.0969,-1.978208 -0.0969,-5.889495 v -5.708248 l 0.28295,-0.237984 z m 20.53702,5.226282 c 1.75647,0 1.6487,-0.123467 1.6487,1.890573 0,1.039574 -0.0326,1.523403 -0.10783,1.598656 -0.0753,0.07524 -0.55963,0.107842 -1.60077,0.107842 -1.04114,0 -1.52551,-0.03256 -1.60076,-0.107842 -0.0758,-0.07559 -0.10785,-0.572411 -0.10785,-1.658553 0,-1.957607 -0.12266,-1.830676 1.76851,-1.830676 z m -23.96987,0.09872 c 0.78423,0.04646 0.72132,0.353134 0.69254,1.803276 -0.0259,1.303109 -0.0453,1.452243 -0.20322,1.567574 -0.26676,0.194785 -2.85937,0.183009 -3.05625,-0.01389 -0.11698,-0.116941 -0.14113,-0.3922 -0.13999,-1.596199 5.7e-4,-0.800182 0.0395,-1.515508 0.0865,-1.589699 0.0685,-0.108628 0.36479,-0.140499 1.52138,-0.16352 0.48232,-0.0096 0.83774,-0.02305 1.09914,-0.0075 z m -1.16553,6.253244 c 0.64606,0.0061 1.29264,0.05033 1.38668,0.128391 0.0861,0.07146 0.12804,0.292712 0.12804,0.674803 0,0.485438 -0.0293,0.588793 -0.19988,0.708347 -0.15631,0.109478 -0.44542,0.138827 -1.32642,0.134362 -1.19537,-0.0061 -1.46894,-0.06188 -1.56792,-0.319833 -0.0953,-0.248175 0.0401,-1.094318 0.19564,-1.223145 0.0921,-0.07633 0.7378,-0.108869 1.38386,-0.102927 z m 25.1009,-0.218483 c 0.64606,0.0061 1.29263,0.05032 1.38666,0.12839 0.0861,0.07144 0.12806,0.292711 0.12806,0.674801 0,0.485438 -0.0293,0.588795 -0.1999,0.708349 -0.15629,0.109466 -0.4454,0.138826 -1.32641,0.134359 -1.19536,-0.0061 -1.46895,-0.06188 -1.56793,-0.319832 -0.0953,-0.248172 0.0401,-1.094318 0.19566,-1.223146 0.0921,-0.07632 0.7378,-0.108857 1.38386,-0.102926 z"
         sodipodi:nodetypes="cczccccccccscccczcczcccccccccccscscssssssssssssssssssssssssssssssssssssssccssssssssscscccccccccsscscssssssssssscssssssssssssssssss" /><circle
         style="display:inline;fill:#000000;stroke-width:0.0680744;stroke-dasharray:none"
         id="path2"
         cx="269.89117"
         cy="12.569997"
         r="5.8452353" /><circle
         style="display:inline;fill:#000000;stroke-width:0.0982501"
         id="path3"
         cx="292.35547"
         cy="34.312477"
         r="7.1941361" /><circle
         style="display:inline;fill:#000000;fill-opacity:1;stroke:#ffffff;stroke-width:0.449634;stroke-dasharray:none;stroke-opacity:1"
         id="path4"
         cx="270.2153"
         cy="57.016068"
         r="7.6437688" /><rect
         style="fill:#000000;stroke-width:0.0454503"
         id="rect8"
         width="1.5264055"
         height="30.607058"
         x="177.82059"
         y="166.57616"
         transform="matrix(0.82749584,-0.56147184,0.7356158,0.67739899,0,0)" /><rect
         style="fill:#000000;stroke-width:0.0491476"
         id="rect8-7"
         width="1.6466939"
         height="33.174988"
         x="234.2455"
         y="-161.4272"
         transform="matrix(0.77284169,0.63459887,-0.69292345,0.72101116,0,0)" /></g><rect
       style="fill:#000000;stroke-width:0.598625"
       id="rect5"
       width="55.811882"
       height="1"
       x="229.08127"
       y="78.055573" /></g></svg>
