<?xml version="1.0" encoding="UTF-8"?>
<svg id="Ebene_2" data-name="Ebene 2" xmlns="http://www.w3.org/2000/svg" viewBox="0 0 253.72 32.37">
  <defs>
    <style>
      .cls-1 {
        fill: #fff;
        stroke-width: 0px;
      }
    </style>
  </defs>
  <g id="Ebene_1-2" data-name="Ebene 1">
    <g>
      <g>
        <path class="cls-1" d="m0,29.16h15.05c3.98,0,7.44-.85,9.89-3.02,2.45-2.16,3.95-5.65,3.96-11.08,0-5.82-1.4-9.36-3.74-11.46-2.33-2.1-5.68-2.8-9.66-2.8h0s-15.49,0-15.49,0v6.12h13.12c1.99-.01,3.35.69,4.11,2.06.77,1.35,1,3.28,1,5.79,0,2.42-.21,4.33-.97,5.68-.75,1.36-2.1,2.09-4.11,2.08h-2.99v-10.03H0v16.65Z"/>
        <polygon class="cls-1" points="31.1 29.16 41.27 29.16 41.27 18.88 53.94 18.88 53.94 12.51 41.27 12.51 41.27 6.94 53.94 6.94 53.94 .81 31.1 .81 31.1 29.16"/>
        <path class="cls-1" d="m60.95,3.89c-3,2.38-4.9,5.91-4.91,10.68,0,5.09,1.83,8.84,4.79,11.34,2.96,2.5,7.09,3.75,11.7,3.75,4.32,0,7.72-.44,11.31-1.5v-13.08h-8.64v7.62l-.19.07c-.73.28-1.63.27-2.4.27-2.23,0-3.82-.93-4.79-2.37-.98-1.44-1.37-3.36-1.37-5.39,0-2.7.91-4.81,2.54-6.22,1.62-1.41,3.92-2.12,6.64-2.12s4.98.63,6.54,1.45V1.33c-2.57-.63-4.53-1.01-9.63-1.01h0c-4.45,0-8.58,1.2-11.58,3.58"/>
      </g>
      <g>
        <path class="cls-1" d="m98.36.78h2.5c1.79.02,3.09.5,3.89,1.44.78.95,1.17,2.2,1.16,3.75-.02,1.86-.57,3.2-1.64,4.02-1.06.81-2.44,1.21-4.15,1.21h-1.77V.78Zm.99,9.54h.83c3.08.07,4.66-1.4,4.74-4.4-.02-1.58-.42-2.69-1.19-3.34-.78-.62-1.76-.92-2.92-.91h-1.46v8.65Z"/>
        <path class="cls-1" d="m113.26,10.97c-.69.27-1.41.41-2.14.42-1.21-.02-2.07-.41-2.59-1.15-.52-.73-.77-1.68-.76-2.84,0-1.19.3-2.15.87-2.88.55-.73,1.3-1.1,2.24-1.11,1.03.02,1.79.39,2.26,1.12.45.72.68,1.6.68,2.66v.48h-5.06c0,.83.21,1.51.62,2.05.41.57,1.01.86,1.81.87.36,0,.74-.07,1.13-.2.4-.11.71-.23.94-.37v.95Zm-.44-4.1c0-.7-.14-1.31-.42-1.84-.3-.53-.79-.8-1.47-.82-.67.02-1.19.3-1.58.84-.4.54-.59,1.15-.59,1.82h4.07Z"/>
        <path class="cls-1" d="m121.54,9.42c0,.58.01,1.18.06,1.79h-.88v-1.36h-.03c-.07.17-.16.33-.28.5-.11.18-.26.35-.45.51-.18.15-.41.27-.68.36-.27.11-.6.17-.98.17-.89,0-1.54-.29-1.93-.84-.4-.54-.59-1.24-.58-2.09V3.59h.9v4.63c0,.73.14,1.3.42,1.71.27.44.72.66,1.34.66.41,0,.77-.09,1.05-.27.29-.17.51-.39.67-.66.17-.28.29-.58.36-.9.07-.32.11-.64.11-.96V3.59h.9v5.82Z"/>
        <path class="cls-1" d="m127.27,4.39h-1.68v4.94c0,.35.08.65.23.88.14.25.39.37.75.37.33,0,.61-.06.84-.18l.06.77c-.11.04-.26.08-.45.13-.2.05-.42.08-.66.08-.4,0-.71-.07-.94-.21-.22-.14-.39-.33-.5-.55-.1-.24-.16-.51-.19-.8-.03-.3-.04-.63-.04-.98v-4.45h-1.45v-.8h1.45v-1.84l.9-.33v2.17h1.68v.8Z"/>
        <path class="cls-1" d="m128.51,10.11c.56.31,1.2.47,1.92.48.46,0,.84-.12,1.16-.37.31-.23.47-.56.48-.99,0-.45-.19-.81-.54-1.07-.35-.25-.76-.47-1.23-.67-.22-.11-.43-.22-.64-.34-.2-.12-.4-.26-.58-.4-.17-.16-.3-.35-.41-.56-.1-.2-.16-.43-.16-.7,0-.76.26-1.3.75-1.61.48-.31,1.03-.47,1.65-.47.21,0,.49.02.83.06.33.06.67.15,1,.28l-.08.82c-.53-.23-1.08-.35-1.64-.36-.47,0-.85.09-1.12.26-.15.09-.26.22-.34.38-.08.16-.13.37-.13.63,0,.16.05.3.16.45.1.13.24.25.42.36.17.1.37.21.59.31.22.1.44.21.65.33.48.21.9.49,1.26.84.36.35.54.84.55,1.45,0,.4-.08.73-.23,1-.16.28-.37.5-.62.67-.54.33-1.11.5-1.72.5-.71,0-1.4-.12-2.06-.36l.08-.92Z"/>
        <path class="cls-1" d="m139.69,4.6c-.52-.25-1.05-.38-1.58-.39-.89,0-1.57.3-2.04.88-.5.59-.74,1.36-.74,2.31,0,.89.24,1.63.73,2.23.47.63,1.12.95,1.95.96.57,0,1.13-.11,1.67-.34l.08.88c-.6.19-1.23.28-1.89.27-1.19-.02-2.07-.43-2.65-1.21-.59-.77-.88-1.7-.88-2.78,0-1.21.35-2.17,1.01-2.88.66-.73,1.54-1.1,2.64-1.11.45,0,.83.03,1.13.1.16.03.29.06.4.09.11.04.19.07.25.1l-.07.89Z"/>
        <path class="cls-1" d="m141.53,0h.9v4.87h.03c.2-.43.5-.78.9-1.06.4-.26.86-.39,1.4-.4.98,0,1.66.31,2.01.9.35.6.52,1.38.51,2.34v4.56h-.9v-4.55c0-.34-.02-.66-.06-.96-.04-.29-.12-.54-.25-.76-.23-.48-.71-.72-1.45-.73-.79.02-1.36.33-1.7.94-.33.61-.5,1.27-.49,1.97v4.08h-.9V0Z"/>
        <path class="cls-1" d="m154.79,10.97c-.69.27-1.41.41-2.14.42-1.21-.02-2.07-.41-2.59-1.15-.52-.73-.77-1.68-.76-2.84,0-1.19.3-2.15.87-2.88.55-.73,1.3-1.1,2.24-1.11,1.03.02,1.79.39,2.26,1.12.45.72.68,1.6.68,2.66v.48h-5.06c0,.83.21,1.51.62,2.05.41.57,1.01.86,1.81.87.36,0,.74-.07,1.13-.2.4-.11.71-.23.94-.37v.95Zm-.44-4.1c0-.7-.14-1.31-.42-1.84-.3-.53-.79-.8-1.47-.82-.67.02-1.19.3-1.58.84-.4.54-.59,1.15-.59,1.82h4.07Z"/>
        <path class="cls-1" d="m98.32,18.72h4.8v.89h-3.81v3.73h3.63v.89h-3.63v4.92h-.99v-10.43Z"/>
        <path class="cls-1" d="m104.41,25.34c0-1.08.28-2.01.84-2.78.56-.79,1.42-1.19,2.6-1.21,1.2.02,2.07.42,2.63,1.21.54.77.81,1.7.81,2.78s-.27,1.99-.81,2.77c-.56.79-1.44,1.2-2.63,1.23-1.18-.02-2.04-.43-2.6-1.23-.56-.78-.84-1.7-.84-2.77Zm.99,0c0,.91.21,1.66.64,2.25.41.62,1.01.93,1.82.94.8,0,1.42-.32,1.84-.94.41-.59.61-1.34.61-2.25s-.2-1.67-.61-2.28c-.43-.6-1.04-.9-1.84-.91-.8,0-1.41.31-1.82.91-.42.6-.64,1.36-.64,2.28Z"/>
        <path class="cls-1" d="m113.29,23.23c0-.71-.02-1.27-.06-1.7h.9v1.46h.03c.17-.45.42-.83.74-1.15.31-.32.7-.49,1.16-.5.24,0,.45.04.64.09v.98c-.2-.06-.42-.09-.66-.09-.36,0-.65.1-.88.27-.23.18-.42.42-.57.73-.14.3-.23.63-.29.97-.07.37-.1.73-.1,1.08v3.77h-.9v-5.92Z"/>
        <path class="cls-1" d="m117.7,28.04c.56.31,1.2.47,1.92.48.46,0,.84-.12,1.16-.37.31-.23.47-.56.48-.99,0-.45-.19-.81-.54-1.07-.35-.25-.76-.47-1.23-.67-.22-.11-.43-.22-.64-.34-.2-.12-.4-.26-.58-.4-.17-.16-.3-.35-.41-.55-.1-.2-.16-.43-.16-.7,0-.76.26-1.3.75-1.61.48-.31,1.03-.47,1.65-.47.21,0,.49.02.83.06.33.06.66.15,1,.28l-.08.82c-.53-.23-1.08-.35-1.64-.36-.47,0-.85.09-1.12.26-.15.09-.26.22-.34.38-.08.16-.13.37-.13.63,0,.16.05.3.16.45.1.13.24.25.42.36.17.1.37.21.59.31.22.1.44.21.65.33.48.21.9.49,1.26.84.36.35.54.84.55,1.45,0,.4-.08.73-.23,1-.16.28-.37.5-.62.67-.54.33-1.11.5-1.72.5-.71,0-1.4-.12-2.06-.36l.08-.92Z"/>
        <path class="cls-1" d="m128.89,22.53c-.52-.25-1.05-.38-1.58-.39-.89,0-1.57.3-2.04.88-.5.59-.74,1.36-.74,2.31,0,.89.24,1.63.73,2.23.47.63,1.12.95,1.95.96.57,0,1.13-.11,1.67-.34l.08.88c-.6.19-1.23.28-1.89.27-1.19-.02-2.07-.43-2.65-1.21-.59-.77-.88-1.7-.88-2.78,0-1.21.35-2.17,1.01-2.88.66-.73,1.54-1.1,2.64-1.11.45,0,.83.03,1.13.1.16.03.29.06.4.09.11.04.19.07.25.1l-.07.89Z"/>
        <path class="cls-1" d="m130.72,17.94h.9v4.87h.03c.2-.43.5-.78.9-1.06.4-.26.86-.39,1.4-.4.98,0,1.66.31,2.01.9.35.6.52,1.38.51,2.34v4.56h-.9v-4.55c0-.34-.02-.66-.06-.96-.04-.29-.12-.54-.25-.76-.23-.48-.71-.72-1.45-.73-.79.02-1.36.33-1.7.94-.33.61-.5,1.27-.49,1.97v4.08h-.9v-11.21Z"/>
        <path class="cls-1" d="m144.78,27.35c0,.58.01,1.18.06,1.79h-.88v-1.36h-.03c-.07.16-.16.33-.28.5-.11.18-.26.35-.45.51-.18.15-.41.27-.68.36-.27.11-.6.17-.98.17-.89,0-1.54-.29-1.93-.84-.4-.54-.59-1.24-.58-2.09v-4.87h.9v4.63c0,.73.14,1.3.42,1.71.27.44.72.66,1.34.66.41,0,.77-.09,1.05-.27.29-.17.51-.39.67-.66.17-.28.29-.58.36-.9.07-.32.11-.64.11-.96v-4.22h.9v5.82Z"/>
        <path class="cls-1" d="m147.34,23.31c0-.58-.02-1.18-.06-1.79h.88v1.36h.03c.08-.18.19-.36.3-.54.11-.18.26-.34.43-.49.18-.16.41-.29.68-.38.27-.09.59-.13.97-.13.91,0,1.56.29,1.95.84.38.54.56,1.23.56,2.09v4.87h-.9v-4.64c0-.73-.13-1.3-.39-1.73-.28-.41-.74-.62-1.37-.63-.81.02-1.38.32-1.71.89-.17.27-.29.57-.36.88-.08.33-.11.67-.11,1.01v4.22h-.9v-5.83Z"/>
        <path class="cls-1" d="m161.49,28.52c0,1.08-.25,1.99-.76,2.72-.53.73-1.43,1.11-2.69,1.13-.49,0-.93-.06-1.34-.16-.4-.1-.7-.18-.9-.24l.08-.94c.61.34,1.33.51,2.17.53.59,0,1.05-.12,1.39-.33.35-.2.61-.48.77-.84.17-.36.29-.77.33-1.24.04-.47.06-.97.06-1.51h-.03c-.52,1.01-1.27,1.51-2.24,1.49-1.16-.03-1.97-.46-2.43-1.28-.25-.38-.41-.79-.51-1.23-.12-.44-.18-.87-.18-1.3,0-1.19.23-2.14.71-2.87.48-.74,1.25-1.11,2.33-1.12.48,0,.91.06,1.28.17.35.14.7.42,1.03.87h.03v-.86h.9v6.99Zm-5.28-3.18c-.01.78.15,1.46.49,2.05.33.62.88.94,1.64.96.82-.02,1.41-.35,1.75-.99.33-.62.5-1.29.5-2.02,0-.95-.15-1.72-.46-2.3-.32-.59-.9-.88-1.73-.89-.43,0-.79.09-1.06.29-.28.18-.51.42-.68.75-.16.3-.27.64-.35,1.02-.07.38-.1.76-.1,1.14Z"/>
        <path class="cls-1" d="m163.4,28.04c.56.31,1.2.47,1.92.48.46,0,.84-.12,1.16-.37.31-.23.47-.56.48-.99,0-.45-.19-.81-.54-1.07-.35-.25-.76-.47-1.23-.67-.22-.11-.43-.22-.64-.34-.2-.12-.4-.26-.58-.4-.16-.16-.3-.35-.41-.55-.1-.2-.16-.43-.16-.7,0-.76.26-1.3.75-1.61.48-.31,1.03-.47,1.65-.47.21,0,.49.02.83.06.33.06.67.15,1,.28l-.08.82c-.53-.23-1.08-.35-1.64-.36-.47,0-.85.09-1.12.26-.15.09-.26.22-.34.38-.08.16-.13.37-.13.63,0,.16.05.3.16.45.1.13.24.25.42.36.17.1.37.21.59.31.22.1.44.21.65.33.48.21.9.49,1.26.84.36.35.54.84.55,1.45,0,.4-.08.73-.23,1-.16.28-.37.5-.62.67-.54.33-1.11.5-1.72.5-.71,0-1.4-.12-2.06-.36l.08-.92Z"/>
        <path class="cls-1" d="m175.62,28.52c0,1.08-.25,1.99-.76,2.72-.53.73-1.43,1.11-2.69,1.13-.49,0-.93-.06-1.34-.16-.4-.1-.7-.18-.9-.24l.08-.94c.61.34,1.33.51,2.17.53.59,0,1.05-.12,1.39-.33.35-.2.61-.48.77-.84.17-.36.29-.77.33-1.24.04-.47.06-.97.06-1.51h-.03c-.52,1.01-1.27,1.51-2.24,1.49-1.16-.03-1.97-.46-2.43-1.28-.25-.38-.41-.79-.51-1.23-.12-.44-.18-.87-.18-1.3,0-1.19.23-2.14.71-2.87.48-.74,1.25-1.11,2.33-1.12.48,0,.91.06,1.28.17.35.14.7.42,1.03.87h.03v-.86h.9v6.99Zm-5.28-3.18c-.01.78.15,1.46.49,2.05.33.62.88.94,1.64.96.82-.02,1.41-.35,1.75-.99.33-.62.5-1.29.5-2.02,0-.95-.15-1.72-.46-2.3-.32-.59-.9-.88-1.73-.89-.43,0-.79.09-1.06.29-.28.18-.51.42-.68.75-.16.3-.27.64-.35,1.02-.07.38-.1.76-.1,1.14Z"/>
        <path class="cls-1" d="m183.04,28.91c-.69.27-1.41.41-2.14.42-1.21-.02-2.07-.41-2.59-1.15-.52-.73-.77-1.68-.76-2.84,0-1.19.3-2.15.87-2.88.55-.73,1.3-1.1,2.24-1.11,1.03.02,1.79.39,2.26,1.12.45.71.68,1.6.68,2.66v.48h-5.06c0,.83.21,1.51.62,2.05.41.57,1.01.86,1.81.87.36,0,.74-.07,1.13-.2.4-.11.71-.23.94-.37v.95Zm-.44-4.11c0-.7-.14-1.31-.42-1.83-.3-.53-.79-.8-1.47-.82-.67.02-1.19.3-1.58.84-.4.54-.59,1.15-.59,1.82h4.07Z"/>
        <path class="cls-1" d="m194.63,29.15v-5.07c0-.28-.02-.54-.06-.78-.06-.23-.16-.43-.29-.6-.12-.18-.28-.31-.49-.42-.21-.09-.47-.13-.79-.13-.53,0-1,.22-1.42.66-.42.46-.64,1.17-.65,2.13v4.22h-.9v-5.07c0-.28-.02-.54-.07-.78-.06-.23-.16-.43-.29-.6-.12-.18-.28-.31-.49-.42-.21-.09-.47-.13-.79-.13-.53,0-1,.22-1.42.66-.42.46-.64,1.17-.65,2.13v4.22h-.91v-5.83c0-.58-.02-1.18-.06-1.79h.91v1.29h.03c.07-.13.16-.28.28-.45.1-.17.24-.33.41-.47.18-.15.4-.28.67-.39.27-.1.6-.15,1-.15.18,0,.37.02.58.06.2.04.4.12.6.24.2.11.37.27.52.48.15.22.25.49.31.83h.03c.19-.46.49-.84.91-1.14.41-.3.91-.46,1.52-.47.77,0,1.36.25,1.78.72.41.46.61,1.08.61,1.84v5.25h-.91Z"/>
        <path class="cls-1" d="m202.97,28.91c-.69.27-1.41.41-2.14.42-1.21-.02-2.07-.41-2.59-1.15-.52-.73-.77-1.68-.76-2.84,0-1.19.3-2.15.87-2.88.55-.73,1.3-1.1,2.24-1.11,1.03.02,1.79.39,2.26,1.12.45.71.68,1.6.68,2.66v.48h-5.06c0,.83.21,1.51.62,2.05.41.57,1.01.86,1.81.87.36,0,.74-.07,1.13-.2.4-.11.71-.23.94-.37v.95Zm-.44-4.11c0-.7-.14-1.31-.42-1.83-.3-.53-.79-.8-1.47-.82-.67.02-1.19.3-1.58.84-.4.54-.59,1.15-.59,1.82h4.07Z"/>
        <path class="cls-1" d="m206.4,19.49h-.9v-1.25h.9v1.25Zm-.9,2.04h.9v7.62h-.9v-7.62Z"/>
        <path class="cls-1" d="m208.81,23.31c0-.58-.02-1.18-.06-1.79h.88v1.36h.03c.08-.18.19-.36.3-.54.11-.18.26-.34.43-.49.18-.16.41-.29.68-.38.27-.09.59-.13.97-.13.91,0,1.56.29,1.95.84.38.54.56,1.23.56,2.09v4.87h-.9v-4.64c0-.73-.13-1.3-.39-1.73-.28-.41-.74-.62-1.37-.63-.81.02-1.38.32-1.71.89-.17.27-.29.57-.36.88-.08.33-.11.67-.11,1.01v4.22h-.9v-5.83Z"/>
        <path class="cls-1" d="m216.56,28.04c.56.31,1.2.47,1.92.48.46,0,.84-.12,1.16-.37.31-.23.47-.56.48-.99,0-.45-.19-.81-.54-1.07-.35-.25-.76-.47-1.23-.67-.22-.11-.43-.22-.64-.34-.2-.12-.4-.26-.58-.4-.16-.16-.3-.35-.41-.55-.1-.2-.16-.43-.16-.7,0-.76.26-1.3.75-1.61.48-.31,1.03-.47,1.65-.47.21,0,.49.02.83.06.33.06.67.15,1,.28l-.08.82c-.53-.23-1.08-.35-1.64-.36-.47,0-.85.09-1.12.26-.15.09-.26.22-.34.38-.08.16-.13.37-.13.63,0,.16.05.3.16.45.1.13.24.25.42.36.17.1.37.21.59.31.22.1.44.21.65.33.48.21.9.49,1.26.84.36.35.54.84.55,1.45,0,.4-.08.73-.23,1-.16.28-.37.5-.62.67-.54.33-1.11.5-1.72.5-.71,0-1.4-.12-2.06-.36l.08-.92Z"/>
        <path class="cls-1" d="m227.74,22.53c-.52-.25-1.05-.38-1.58-.39-.89,0-1.57.3-2.04.88-.5.59-.74,1.36-.74,2.31,0,.89.24,1.63.73,2.23.47.63,1.12.95,1.95.96.57,0,1.13-.11,1.67-.34l.08.88c-.6.19-1.23.28-1.89.27-1.19-.02-2.07-.43-2.65-1.21-.59-.77-.88-1.7-.88-2.78,0-1.21.35-2.17,1.01-2.88.66-.73,1.54-1.1,2.64-1.11.45,0,.83.03,1.13.1.16.03.29.06.4.09.11.04.19.07.25.1l-.07.89Z"/>
        <path class="cls-1" d="m229.58,17.94h.9v4.87h.03c.2-.43.5-.78.9-1.06.4-.26.86-.39,1.4-.4.98,0,1.66.31,2.01.9.35.6.52,1.38.51,2.34v4.56h-.9v-4.55c0-.34-.02-.66-.06-.96-.04-.29-.12-.54-.25-.76-.23-.48-.71-.72-1.45-.73-.79.02-1.36.33-1.7.94-.33.61-.5,1.27-.49,1.97v4.08h-.9v-11.21Z"/>
        <path class="cls-1" d="m242.12,27.93h-.03c-.21.45-.54.79-.97,1.02-.43.24-.89.37-1.37.38-.51,0-.93-.09-1.24-.25-.33-.15-.58-.34-.76-.57-.31-.5-.45-.94-.43-1.33,0-.64.15-1.14.45-1.51.29-.37.66-.63,1.12-.79.45-.16.94-.27,1.48-.33.52-.03,1.03-.04,1.51-.04h.18v-.39c.03-1.31-.53-1.97-1.68-1.97-.76,0-1.49.2-2.17.63v-.91c.68-.33,1.41-.5,2.17-.52,1.75-.02,2.61.93,2.59,2.84v3.36c-.01.58.01,1.11.08,1.6h-.9v-1.22Zm-.08-2.62h-.26c-.4,0-.79.01-1.19.03-.41.04-.79.12-1.13.26-.34.12-.61.3-.81.55-.22.25-.33.59-.33,1.01,0,.49.16.84.47,1.05.29.22.64.33,1.07.33.53,0,.95-.11,1.26-.33.3-.21.52-.46.66-.75.14-.31.22-.62.24-.92.02-.31.04-.57.04-.77v-.46Z"/>
        <path class="cls-1" d="m245.98,22.33h-1.49v-.8h1.49v-.55c0-.41.02-.81.06-1.2.02-.38.09-.72.22-1.01.12-.31.32-.56.59-.74.26-.17.62-.26,1.08-.26.16,0,.31,0,.48.01.16.03.29.07.37.13l-.06.82c-.2-.11-.44-.17-.72-.17-.3,0-.53.07-.69.21-.17.16-.28.36-.33.58-.06.23-.08.47-.08.73,0,.27-.01.53-.01.77v.66h1.66v.8h-1.66v6.82h-.9v-6.82Z"/>
        <path class="cls-1" d="m253.51,22.33h-1.68v4.94c0,.35.08.65.23.88.14.25.39.37.75.37.33,0,.61-.06.84-.18l.06.78c-.11.04-.26.08-.45.13-.2.05-.42.08-.66.08-.4,0-.71-.07-.94-.21-.22-.14-.39-.33-.5-.55-.1-.24-.16-.51-.19-.8-.03-.3-.04-.63-.04-.98v-4.45h-1.45v-.8h1.45v-1.84l.9-.33v2.17h1.68v.8Z"/>
      </g>
    </g>
  </g>
</svg>